<?xml version="1.0" encoding="iso-8859-1"?>
<!-- Generator: Adobe Illustrator 19.0.0, SVG Export Plug-In . SVG Version: 6.00 Build 0)  -->
<svg version="1.1" id="Layer_1" xmlns="http://www.w3.org/2000/svg" xmlns:xlink="http://www.w3.org/1999/xlink" x="0px" y="0px"
	 viewBox="0 0 504.124 504.124" style="enable-background:new 0 0 504.124 504.124;" xml:space="preserve">
<path style="fill:#EA0C5C;" d="M482.951,396.006c0,8.531-6.908,15.447-15.447,15.447H95.461c-8.515,0-15.439-6.916-15.439-15.447
	v-64.37c0-8.531,6.924-15.447,15.439-15.447h372.043c8.539,0,15.447,6.916,15.447,15.447L482.951,396.006L482.951,396.006z"/>
<path style="fill:#BC0852;" d="M467.512,316.197c8.539,0,15.447,6.916,15.447,15.447v64.37c0,8.531-6.908,15.447-15.447,15.447
	H95.461"/>
<path style="fill:#FF7171;" d="M80.022,331.643c0-8.531,6.924-15.447,15.439-15.447h372.043c8.539,0,15.447,6.916,15.447,15.447"/>
<g>
	<path style="fill:#F2DB06;" d="M399.991,396.699c0,1.552-1.268,2.812-2.812,2.812l0,0c-1.552,0-2.82-1.26-2.82-2.812V330.95
		c0-1.56,1.268-2.82,2.82-2.82l0,0c1.544,0,2.812,1.26,2.812,2.82V396.699z"/>
	<path style="fill:#F2DB06;" d="M417.84,396.699c0,1.552-1.26,2.812-2.812,2.812l0,0c-1.56,0-2.82-1.26-2.82-2.812V330.95
		c0-1.56,1.26-2.82,2.82-2.82l0,0c1.552,0,2.812,1.26,2.812,2.82V396.699z"/>
	<path style="fill:#F2DB06;" d="M435.689,396.699c0,1.552-1.252,2.812-2.82,2.812l0,0c-1.544,0-2.804-1.26-2.804-2.812V330.95
		c0-1.56,1.26-2.82,2.804-2.82l0,0c1.568,0,2.82,1.26,2.82,2.82V396.699z"/>
</g>
<path style="fill:#038462;" d="M424.102,302.089c0,8.523-6.916,15.447-15.447,15.447H36.613c-8.531,0-15.447-6.924-15.447-15.447
	v-64.37c0-8.539,6.916-15.447,15.447-15.447h372.043c8.531,0,15.447,6.908,15.447,15.447V302.089z"/>
<path style="fill:#047769;" d="M408.655,222.272c8.531,0,15.447,6.908,15.447,15.447v64.37c0,8.523-6.916,15.447-15.447,15.447
	H36.613"/>
<path style="fill:#2EAF8D;" d="M21.174,237.719c0-8.539,6.916-15.447,15.447-15.447h372.035c8.531,0,15.447,6.908,15.447,15.447"/>
<g>
	<path style="fill:#F2DB06;" d="M341.134,302.775c0,1.552-1.26,2.812-2.82,2.812l0,0c-1.544,0-2.796-1.26-2.796-2.812v-65.757
		c0-1.552,1.252-2.812,2.796-2.812l0,0c1.56,0,2.82,1.26,2.82,2.812V302.775z"/>
	<path style="fill:#F2DB06;" d="M358.984,302.775c0,1.552-1.26,2.812-2.828,2.812l0,0c-1.544,0-2.804-1.26-2.804-2.812v-65.757
		c0-1.552,1.26-2.812,2.804-2.812l0,0c1.568,0,2.828,1.26,2.828,2.812V302.775z"/>
	<path style="fill:#F2DB06;" d="M376.833,302.775c0,1.552-1.268,2.812-2.812,2.812l0,0c-1.56,0-2.82-1.26-2.82-2.812v-65.757
		c0-1.552,1.26-2.812,2.82-2.812l0,0c1.544,0,2.812,1.26,2.812,2.812V302.775z"/>
</g>
<path style="fill:#115989;" d="M424.102,488.678c0,8.523-6.916,15.447-15.447,15.447H36.613c-8.531,0-15.447-6.924-15.447-15.447
	v-64.37c0-8.531,6.916-15.447,15.447-15.447h372.043c8.531,0,15.447,6.916,15.447,15.447V488.678z"/>
<path style="fill:#003B5B;" d="M408.655,408.861c8.531,0,15.447,6.916,15.447,15.447v64.37c0,8.523-6.916,15.447-15.447,15.447
	H36.613"/>
<path style="fill:#158ACC;" d="M21.174,424.308c0-8.531,6.916-15.447,15.447-15.447h372.035c8.531,0,15.447,6.916,15.447,15.447"/>
<g>
	<path style="fill:#F2DB06;" d="M341.134,489.371c0,1.552-1.26,2.812-2.82,2.812l0,0c-1.544,0-2.796-1.26-2.796-2.812v-65.757
		c0-1.536,1.252-2.812,2.796-2.812l0,0c1.56,0,2.82,1.276,2.82,2.812V489.371z"/>
	<path style="fill:#F2DB06;" d="M358.984,489.371c0,1.552-1.26,2.812-2.828,2.812l0,0c-1.544,0-2.804-1.26-2.804-2.812v-65.757
		c0-1.536,1.26-2.812,2.804-2.812l0,0c1.568,0,2.828,1.276,2.828,2.812V489.371z"/>
	<path style="fill:#F2DB06;" d="M376.833,489.371c0,1.552-1.268,2.812-2.812,2.812l0,0c-1.56,0-2.82-1.26-2.82-2.812v-65.757
		c0-1.536,1.26-2.812,2.82-2.812l0,0c1.544,0,2.812,1.276,2.812,2.812V489.371z"/>
</g>
<circle style="fill:#FFAA00;" cx="252.062" cy="131.853" r="92.987"/>
<path style="fill:#FF8500;" d="M252.062,38.882c51.358,0,92.987,41.622,92.987,92.979s-41.63,92.979-92.987,92.979"/>
<path style="fill:#54391E;" d="M252.566,57.038c-4.151,0-7.507-3.363-7.507-7.507c0-17.258-14.052-31.319-31.327-31.319
	c-4.151,0-7.507-3.356-7.507-7.515c0-4.151,3.356-7.507,7.507-7.507c25.553,0,46.34,20.787,46.34,46.34
	C260.081,53.675,256.725,57.038,252.566,57.038z"/>
<path style="fill:#382413;" d="M213.741,17.275c-0.819,0-1.575,0.221-2.332,0.473c0.756,0.244,1.512,0.473,2.332,0.473
	c17.266,0,31.327,14.052,31.327,31.319c0,4.143,3.356,7.507,7.507,7.507c2.725,0,5.01-1.52,6.333-3.694
	C254.197,32.722,235.757,17.275,213.741,17.275z"/>
<path style="fill:#7EC441;" d="M305.799,3.9c-12.768-8.271-34.068-3.119-50.105,12.902c-16.03,16.037-13.383,29.562-3.718,40.921
	L305.799,3.9z"/>
<path style="fill:#559E1B;" d="M305.696,3.79c8.263,12.761,3.119,34.068-12.91,50.105c-16.03,16.03-29.554,13.375-40.921,3.718
	L305.696,3.79z"/>
<g>
	<path style="fill:#F4C951;" d="M236.285,55.187c7.593,7.593-9.051,17.912-25.687,34.54s-26.947,33.264-34.54,25.679
		c-7.57-7.578-0.236-27.199,16.384-43.827C209.078,54.943,228.691,47.609,236.285,55.187z"/>
	<circle style="fill:#F4C951;" cx="177.129" cy="129.971" r="4.072"/>
	<circle style="fill:#F4C951;" cx="176.814" cy="147.828" r="1.252"/>
</g>
<g>
</g>
<g>
</g>
<g>
</g>
<g>
</g>
<g>
</g>
<g>
</g>
<g>
</g>
<g>
</g>
<g>
</g>
<g>
</g>
<g>
</g>
<g>
</g>
<g>
</g>
<g>
</g>
<g>
</g>
</svg>
