<svg xmlns="http://www.w3.org/2000/svg" width="auto" height="20px" viewBox="0 -10 65.078 25.233" fill="rgb(37,99,235)" stroke="rgb(37,99,235)"><path d="M50.592 15.233h-.439c-.713-1.045-1.486-1.733-2.321-2.065-.835-.332-2.194-.517-4.078-.556-2.607 0-5.209-.005-7.806-.015v-.44c.85-.38 1.968-1.522 3.354-3.426.498-.693 1.63-2.397 3.397-5.11C43.89 1.784 44.666.774 45.028.588h5.418v.44c-1.63.42-2.98 1.005-4.05 1.757-1.068.751-1.603 1.513-1.603 2.284 0 1.172 1.25 2.07 3.75 2.695v.439l-3.5.205c-1.436.078-2.153.234-2.153.469 0 .244.615.507 1.845.79 1.572.362 2.763.825 3.573 1.391 1.328.947 2.09 2.339 2.284 4.174z" /><path id="path3872" d="M64.624 10.682c.303.313.454.635.454.967 0 .586-.469 1.152-1.406 1.699-.82.478-1.825.849-3.017 1.112-1.151.264-2.074.342-2.767.235v-1.172c2.382-.273 3.573-1.044 3.573-2.313 0-.87-.557-1.738-1.67-2.607a11.34 11.34 0 0 1-2.445-2.65c-.86-1.27-1.289-2.466-1.289-3.588 0-.703.171-1.353.513-1.948l.249-.322c.215 1.503.883 3.046 2.006 4.627.8 1.142 1.889 2.353 3.266 3.632.84.781 1.684 1.557 2.533 2.328zM57.112 7.55c.048.673-.113 1.386-.484 2.138-.185.37-.541.942-1.069 1.713-.39.566-.585.952-.585 1.157 0 .37.532.546 1.596.527v1.977c-2.392-.244-3.588-.85-3.588-1.816 0-.488.322-1.147.967-1.977.605-.722 1.215-1.44 1.83-2.153.654-.83.99-1.483 1.01-1.962z" /><path id="path3880" d="m24.56 4.722-4.1 3.676c-.283.264-.424.65-.424 1.157 0 .683.263 1.4.79 2.152.625.928 1.587 1.816 2.885 2.666l-.029.322c-1.562-.342-2.592-.654-3.09-.937-.644-.362-1.484-1.182-2.519-2.46a2864.09 2864.09 0 0 1-5.052-6.356c.02-1.123.766-2.631 2.24-4.525l3.53.249c-.625.42-1.235.976-1.83 1.67-.684.79-.982 1.371-.894 1.742.098.39.522.825 1.274 1.303.79.488 1.504.733 2.138.733.176 0 .332-.02.469-.06 1.132-.35 1.698-1.224 1.698-2.62 0-.83-.214-1.753-.644-2.768 1.806 0 2.992.063 3.559.19 0 .352.031.825.095 1.42.063.596.095 1.02.095 1.275 0 .449-.064.84-.19 1.171z" /><path id="path3896" d="M6.297 6.194c-.518-.761-1.07-1.142-1.655-1.142-.42 0-1.01.23-1.772.688-1.025.615-1.752 1.006-2.182 1.172L.366 6.59c1.074-.732 1.958-1.743 2.65-3.032.46-.84.884-1.918 1.275-3.236L4.613 0c.224 0 .337.268.337.805 0-.39-.02.02-.059 1.23-.01.498.03.864.117 1.099.108.322.318.473.63.454 1.376-.098 2.455.146 3.236.732.723.547 1.084 1.303 1.084 2.27 0 1.542-.825 3.026-2.475 4.452C5.609 12.671 3.114 13.75 0 14.277v-.44c1.884-.761 3.47-1.786 4.76-3.075C6 9.503 6.618 8.342 6.618 7.278c0-.41-.107-.771-.322-1.084z" /><path id="path3898" d="M34.104 2.976c-.175.342-.454.669-.834.982-.469.38-.864.8-1.186 1.259.634.966.98 1.513 1.04 1.64a4.39 4.39 0 0 1 .497 2.065c0 1.347-.547 3.197-1.64 5.55h-.44c0-2.294-.068-3.832-.204-4.613-.156-.86-.508-1.591-1.055-2.197-.85-.8-1.698-1.606-2.548-2.416.215-.283.66-.717 1.333-1.303.81-.703 1.371-1.22 1.684-1.553.615-.644 1.025-1.254 1.23-1.83 1.093.205 1.801 1.01 2.123 2.416z"/></svg>